<svg xmlns="http://www.w3.org/2000/svg" version="1.1" xmlns:xlink="http://www.w3.org/1999/xlink" viewBox="0 0 2400 800" style="overflow: hidden; display: block;" width="2400" height="800"><defs></defs><g id="two-0" transform="matrix(1 0 0 1 0 0)" opacity="1"></g><path d="M 370.61259938403265 406.59303621601845 Q 370.61259938403265 406.59303621601845 381.8536301670006 405.1543443027143 393.09466094996856 403.7156523894102 407.4489327543512 402.39970673017933 421.80320455873385 401.08376107094847 432.8223535424887 401.83211376191605 443.8415025262436 402.58046645288357 461.76010746745976 404.21789435871676 479.67871240867595 405.8553222645499 493.44589385717205 405.91826340687373 507.21307530566816 405.9812045491975 517.115933274858 406.9789852115294 527.0187912440477 407.97676587386127 538.9694259417095 407.73619134959705 550.9200606393711 407.49561682533283 564.147647208133 406.14546858960455 577.3752337768949 404.7953203538762 589.4337771556343 403.80090358221537 601.4923205343737 402.8064868105546 620.6365928508806 401.3745528562215 639.7808651673876 399.94261890188847 653.5297434993342 398.9043810132564 667.2786218312809 397.8661431246243 678.9741185904868 396.5372152360841 690.6696153496927 395.2082873475439 706.511311928852 394.3444713107931 722.3530085080114 393.4806552740423 733.2368019013169 392.81271173354054 744.1205952946224 392.1447681930388 764.3547974492863 391.72328179633996 784.5889996039501 391.3017953996412 795.3188719124696 392.0283409268519 806.0487442209892 392.75488645406256 823.3446495643586 395.49502917603314 840.6405549077282 398.2351718980037 853.8401392618105 399.15632607898357 867.0397236158927 400.0774802599634 878.2101226196687 400.32794510661114 889.3805216234447 400.57840995325887 906.0571731099458 402.81033821752635 922.7338245964468 405.0422664817939 933.2618307338755 405.57977726654065 943.7898368713044 406.11728805128735 953.6329302851088 407.04985734161824 963.4760236989133 407.9824266319491 975.7279111062276 409.0540018506457 987.9797985135418 410.1255770693422 1007.5917406213532 412.4271774903609 1027.2036827291645 414.7287779113796 1039.4273208994937 415.4055629225278 1051.6509590698226 416.08234793367603 1066.2874444673855 416.03818424997485 1080.9239298649484 415.99402056627366 1095.5944779692097 416.64650991154804 1110.265026073471 417.29899925682247 1124.0236365817186 417.42913581363143 1137.782247089966 417.55927237044034 1156.89476203991 417.72379738151096 1176.0072769898536 417.8883223925816 1196.1422023492953 418.7452013473145 1216.277127708737 419.6020803020474 1230.2275329667707 420.41472002249157 1244.1779382248044 421.2273597429358 1264.5950052621006 421.4037474353445 1285.012072299397 421.58013512775324 1298.3907398976896 421.26705672104436 1311.7694074959823 420.95397831433553 1323.653130305343 420.6473443460225 1335.5368531147035 420.3407103777095 1345.67488091584 420.05273776839965 1355.8129087169766 419.76476515908985 1369.7338761786295 417.2747758833982 1383.6548436402823 414.7847866077065 1395.7027343672426 413.880792117157 1407.7506250942026 412.9767976266075 1422.4176659546144 410.3504964539492 1437.0847068150263 407.7241952812909 1448.2327278684015 406.16657263743514 1459.3807489217766 404.6089499935793 1475.385235191772 400.9640286986365 1491.3897214617673 397.3191074036937 1503.8880784905245 395.6781027050284 1516.3864355192816 394.03709800636307 1528.5508181197213 390.8019112304161 1540.715200720161 387.5667244544692 1551.8779226263775 386.7377355682477 1563.0406445325941 385.9087466820261 1574.1063191672717 382.91984523740535 1585.1719938019494 379.9309437927846 1595.6174426271018 379.67674935529715 1606.0628914522542 379.4225549178097 1615.958492101724 378.3212462746578 1625.8540927511935 377.2199376315059 1637.6802684047366 375.3178383049091 1649.5064440582794 373.41573897831233 1660.0583583029718 373.155873507366 1670.6102725476642 372.8960080364196 1677.6026040227366 372.793043354414 1684.5949354978088 372.69007867240845 1688.7178136161015 373.36601212586976 1692.8406917343939 374.04194557933107 1696.5319034266938 375.99897553680046 1700.2231151189937 377.9560054942698 1703.0961895467317 380.98923040259444 1705.9692639744699 384.02245531091904 1707.723389486644 387.81429572150375 1709.4775149988182 391.6061361320885 1709.9290341912597 395.75958535299645 1710.380553383701 399.9130345739044 1709.4821920777717 403.99322537530236 1708.5838307718423 408.07341617670033 1706.429647633417 411.6531515046162 1704.275464494992 415.232886832532 1701.0910030673135 417.9373674531746 1697.9065416396352 420.64184807381724 1694.0252158747974 422.1879141522918 1690.1438901099596 423.7339802307663 1685.9720758401113 423.95975824053465 1681.800261570263 424.185536250303 1677.7747488507098 423.0673871741428 1673.7492361311565 421.9492380979827 1670.2914972062672 419.60423243933064 1666.833758281378 417.2592267806786 1664.3058193293436 413.93288725101695 1661.777880377309 410.6065477213553 1660.444417273718 406.647142947508 1659.110954170127 402.6877381736606 1659.1115808539255 398.50981888063075 1659.112207537724 394.3318995876009 1660.4468583949533 390.37289502823234 1661.7815092521826 386.41389046886377 1664.3104459857768 383.08830946559806 1666.8393827193709 379.7627284623324 1670.2978249857483 377.4187602240797 1673.7562672521258 375.07479198582695 1677.7821152330566 373.9578506058797 1681.8079632139877 372.8409092259325 1685.979709563148 373.06793876161515 1690.151455912308 373.2949682972978 1694.0323176857064 374.8421986962944 1697.9131794591046 376.38942909529095 1701.0968294046183 379.09486492639735 1704.280479350132 381.80030075750375 1706.433588478064 385.38068217503746 1708.5866976059956 388.9610635925711 1709.4838348222852 393.0415237169874 1710.380972038575 397.12198384140373 1709.928206839856 401.2752974205394 1709.4754416411372 405.4286109996751 1707.7201786632338 409.21992500542626 1705.9649156853304 413.01123901117745 1703.0909314253734 416.0436018663323 1700.2169471654163 419.07596472148725 1696.5251485340814 421.03188723464507 1692.8333499027467 422.98780974780294 1688.7102691912748 423.6625063155227 1684.587188479803 424.3372028832424 1684.5910620141478 424.3372034642688 1684.5949355484927 424.3372040452951 1679.4401982366423 424.271596900596 1674.285460924792 424.2059897558969 1664.4591350536712 423.39861894342755 1654.6328091825503 422.5912481309582 1640.4365163822404 424.73397964920514 1626.2402235819304 426.876711167452 1611.0994491616032 427.7460281813816 1595.958674741276 428.6153451953112 1585.7102502226378 429.9310529985971 1575.4618257039997 431.2467608018831 1560.5493394257367 432.3864436132884 1545.6368531474736 433.52612642469364 1534.3610113105292 436.48877948022385 1523.0851694735845 439.45143253575407 1511.7004343390745 440.88725036492025 1500.3156992045647 442.32306819408643 1487.7459603522213 444.74426094596663 1475.176221499878 447.16545369784683 1465.141909104791 448.54645260465054 1455.1075967097042 449.92745151145425 1444.765081265802 451.2290395928057 1434.4225658219002 452.53062767415713 1421.4645763060826 454.59705491585066 1408.5065867902647 456.66348215754414 1395.6875543466845 457.08358277090866 1382.8685219031042 457.5036833842732 1369.3391247116645 459.18550943514856 1355.8097275202247 460.867335486024 1345.6655882878447 460.57691764437016 1335.5214490554647 460.2864998027164 1323.6108291937285 459.9663282158901 1311.7002093319925 459.6461566290638 1298.2531281794577 459.25812946934 1284.806047026923 458.8701023096163 1264.0542067553565 458.63154880886316 1243.3023664837904 458.3929953081101 1228.1705361747522 458.5204896115688 1213.038705865714 458.64798391502745 1194.4769167390705 457.87002811513634 1175.9151276124269 457.0920723152452 1156.4486862542435 457.077290780387 1136.98224489606 457.06250924552876 1120.5769575843865 456.19994520203954 1104.1716702727133 455.3373811585503 1092.2392233437304 454.2644149542175 1080.3067764147474 453.1914487498848 1065.2100270505127 452.46627169681886 1050.113277686278 451.74109464375294 1036.261470776175 451.2933993752483 1022.409663866072 450.84570410674365 1012.5892261003471 449.45452862767985 1002.7687883346221 448.06335314861605 987.8815732170895 445.54984485277544 972.9943580995567 443.0363365569349 957.2667495737602 440.95544813413784 941.5391410479637 438.8745597113408 930.3979566682337 437.9245467571577 919.256772288504 436.9745338029746 903.7994167906977 435.7064062109365 888.3420612928913 434.4382786188985 876.6895383023412 433.9942060905305 865.0370153117912 433.5501335621625 850.9287772630935 432.83708215486996 836.8205392143958 432.1240307475774 810.8720483750625 430.2389538480397 784.9235575357292 428.353876948502 765.612901398334 428.68875081327496 746.3022452609388 429.0236246780479 736.0772916920595 429.6045732101516 725.8523381231802 430.18552174225533 710.8786358586419 432.26027528810573 695.9049335941037 434.33502883395613 684.1096510197931 436.149917587382 672.3143684454825 437.96480634080785 657.184077918236 440.5533193514709 642.0537873909894 443.1418323621339 624.10328226766 445.0381731981348 606.1527771443307 446.93451403413565 590.0996514186646 448.1381554528426 574.0465256929986 449.34179687154966 562.4262328162483 450.0750669945081 550.8059399394981 450.8083371174665 540.2113649350276 450.37446710188834 529.6167899305573 449.94059708631016 518.1027413480069 448.23832756285367 506.5886927654565 446.5360580393972 492.34290670887435 446.03816386384005 478.0971206522922 445.540269688283 465.23123222900244 445.1696719056415 452.36534380571277 444.7990741230001 438.00191960765846 443.0940601438847 423.6384954096041 441.38904616476924 411.14578350179045 442.014065051742 398.65307159397673 442.6390839387148 387.45987233544076 444.40528704494193 376.26667307690485 446.17149015116905 373.85758629892496 446.22224010856974 371.448499520945 446.2729900659705 369.0972752225204 445.7457150328884 366.7460509240958 445.2184399998064 364.5893423719228 444.1437852259382 362.43263381974975 443.06913045207 360.59578901621313 441.50955492336533 358.7589442126765 439.94997939466066 357.3487206640616 437.9961257141242 355.9384971154467 436.0422720335877 355.0368570806581 433.8076982689337 354.13521704586947 431.5731245042796 353.7945638860924 429.18770418770055 353.45391072631537 426.8022838711216 353.6940432192017 424.4046577434957 353.934175712088 422.0070316158699 354.74113734586854 419.7365498203868 355.54809897964907 417.4660680249037 356.87498910625357 415.45469107019494 358.201879232858 413.4433141154862 359.9715789357845 411.8079433246636 361.74127863871104 410.172572533841 363.8509328880765 409.00825573410475 365.96058713744196 407.8439389343685 368.2875827291516 407.2183462728244 370.61457832086126 406.5927536112804 370.6135888524469 406.5928949136494 Z" fill="#1e29f8d8"></path></svg>