<svg xmlns="http://www.w3.org/2000/svg" version="1.1" xmlns:xlink="http://www.w3.org/1999/xlink" viewBox="0 0 1422 800" style="overflow: hidden; display: block;" width="1422" height="800"><defs></defs><g id="two-0" transform="matrix(1 0 0 1 0 0)" opacity="1"></g><path d="M 529.7319768619752 416.28676775933025 Q 529.7319768619752 416.28676775933025 531.5055378128022 411.1400153915091 533.2790987636293 405.993263023688 544.8541186823575 400.6401729594704 556.4291386010855 395.2870828952529 569.3980776625459 392.1867193592542 582.3670167240064 389.08635582325553 594.1052210999734 385.0422784475994 605.8434254759404 380.99820107194324 618.1130905551971 377.00197290121764 630.3827556344538 373.00574473049204 644.1785469545173 367.82967817290626 657.9743382745809 362.65361161532053 669.8845101258325 358.266092814323 681.7946819770842 353.8785740133254 694.2338835415071 350.02029236091926 706.6730851059301 346.16201070851315 720.1245095228315 341.4853726238997 733.575933939733 336.8087345392862 745.9072515059754 332.2625686876082 758.2385690722177 327.71640283593024 768.7159574547252 322.6307100410122 779.1933458372325 317.5450172460941 792.6568964800483 313.83923089002803 806.1204471228641 310.13344453396195 817.3486230662936 306.98991571213486 828.5767990097232 303.84638689030777 842.705242898968 300.21332511219606 856.8336867882126 296.58026333408435 869.278903774472 294.9394563316962 881.7241207607315 293.2986493293081 893.2898579185601 292.16760862486944 904.8555950763887 291.0365679204308 916.4143400261164 289.900522362022 927.973084975844 288.76447680361326 939.5318008004297 287.73595942198097 951.0905166250153 286.7074420403487 967.4223458609493 290.9003503505256 983.7541750968834 295.0932586607025 988.8884427183411 292.32414775658685 994.022710339799 289.55503685247123 996.9606784072869 290.03670787384135 999.8986464747748 290.5183788952115 1002.5290085100485 291.9129608762357 1005.1593705453221 293.3075428572598 1007.2067269489402 295.4690226963909 1009.2540833525583 297.63050253552194 1010.5040753686125 300.3325727230276 1011.7540673846667 303.0346429105333 1012.0758205191102 305.99439598450454 1012.3975736535536 308.9541490584757 1011.7574002682757 311.86169809076875 1011.1172268829978 314.76924712306175 1009.5821533004263 317.32017096247705 1008.0470797178548 319.87109480189235 1005.777828547305 321.7983110490647 1003.5085773767554 323.72552729623703 1000.7427398148081 324.8272559013518 997.976902252861 325.9289845064666 995.0040622223623 326.0898741937401 992.0312221918637 326.25076388101365 989.1626368287604 325.4539694577177 986.294051465657 324.65717503442175 983.8300624146989 322.98612108700866 981.3660733637408 321.3150671395956 979.5646609289932 318.944713457475 977.7632484942457 316.57435977535437 976.8130210331533 313.7528830147568 975.8627935720609 310.9314062541592 975.8632401506359 307.95421577671675 975.8636867292109 304.9770252992744 976.8147605905585 302.15583373387733 977.7658344519061 299.3346421684803 979.5679579116841 296.9648290167479 981.3700813714621 294.59501586501545 983.8345716277174 292.92470118950405 986.2990618839727 291.2543865139926 989.1678861563131 290.4584527021484 992.0367104286535 289.6625188903042 995.0095020584688 289.8243004223335 997.9822936882842 289.9860819543628 1000.7478006071922 291.0886402611559 1003.5133075261001 292.191198567949 1005.781980429668 294.1190955037376 1008.0506533332359 296.04699243952615 1009.5849615695888 298.59837668621776 1011.1192698059416 301.1497609329094 1011.7585708977151 304.05750188637535 1012.3978719894887 306.9652428398414 1012.0752309436152 309.92489925468476 1011.7525898977417 312.8845556695282 1010.5017873168931 315.5862507378415 1009.2509847360445 318.2879458061549 1007.2029799806154 320.44881134110744 1005.1549752251863 322.60967687606006 1002.524194933691 324.0034696857293 999.8934146421956 325.39726249539854 996.955302205612 325.8780521046865 994.0171897690284 326.3588417139744 994.0199500544137 326.3588421280172 994.022710339799 326.35884254206 991.5459018082123 326.34311934302184 989.0690932766256 326.32739614398366 977.5104024126374 325.37265954366023 965.9517115486492 324.41792294333675 954.5514201934615 323.37313610665797 943.1511288382737 322.3283492699792 951.8914391063678 314.31830692513273 960.6317493744618 306.3082645802863 948.4304698098564 315.13841416314074 936.229190245251 323.9685637459952 924.8237379387067 323.6678132604057 913.4182856321625 323.3670627748162 921.8477586672099 315.66325100230085 930.2772317022573 307.95943922978546 915.0825284202092 316.34175440259526 899.8878251381611 324.72406957540505 887.7310835650383 324.9934850098229 875.5743419919153 325.26290044424076 862.9000348647405 326.2926231298334 850.2257277375658 327.322345815426 839.0278649538432 330.87318498180855 827.8300021701207 334.4240241481911 816.4088405821983 338.5349655987226 804.987678994276 342.64590704925405 793.6885430509321 346.50164464973534 782.3894071075882 350.3573822502167 771.255200639022 354.33370702820343 760.1209941704558 358.3100318061901 749.1507352931324 362.3195419771131 738.1804764158088 366.3290521480361 722.7020765459197 372.65651930070817 707.2236766760305 378.9839864533802 694.9830869694465 383.5064675050263 682.7424972628626 388.0289485566724 668.9211865339662 393.03783887450845 655.0998758050699 398.04672919234457 642.9582746092248 401.6992836499003 630.8166734133796 405.35183810745593 618.2720419032776 409.15642232196126 605.7274103931754 412.96100653646664 593.6192280819635 415.15037842570985 581.5110457707515 417.3397503149531 568.9865229420377 416.09147203918724 556.4620001133238 414.84319376342137 554.961141996768 419.5196985977487 553.4602838802123 424.196203432076 552.8146698588743 425.558424529936 552.1690558375362 426.920645627796 551.2161923537601 428.08877017821385 550.2633288699839 429.2568947286318 549.0585963942166 430.1630312778532 547.8538639184493 431.0691678270745 546.4672815587867 431.66065167628403 545.0806991991242 432.25213552549354 543.5928551874581 432.49458960558434 542.1050111757921 432.73704368567513 540.6023790759867 432.61637655412073 539.0997469761813 432.4957094225663 537.6696598364781 432.0189342587221 536.2395726967749 431.5421590948779 534.9651472489259 430.7369860936677 533.6907218010767 429.9318130924576 532.6460277119893 428.8450389465428 531.601333622902 427.7582648006279 530.8470885621188 426.45305287443074 530.0928435013356 425.1478409482336 529.6728842272273 423.70005022022985 529.2529249531192 422.2522594922261 529.1916595184289 420.74603562755146 529.1303940837385 419.23981176287685 529.4313832384087 417.7626965633159 529.732372393079 416.2855813637549 529.7321746275271 416.28617456154257 Z" fill="#1e29f8d8"></path></svg>